<?xml version="1.0" standalone="no"?>
<!DOCTYPE svg PUBLIC "-//W3C//DTD SVG 20010904//EN"
 "http://www.w3.org/TR/2001/REC-SVG-20010904/DTD/svg10.dtd">
<svg version="1.0" xmlns="http://www.w3.org/2000/svg"
 width="3125.000000pt" height="3125.000000pt" viewBox="0 0 3125.000000 3125.000000"
 preserveAspectRatio="xMidYMid meet">
<metadata>
Created by potrace 1.14, written by Peter Selinger 2001-2017
</metadata>
<g transform="translate(0.000000,3125.000000) scale(0.100000,-0.100000)"
fill="#000000" stroke="none">
<path d="M13667 27594 c-1 -1 -366 -5 -812 -9 -890 -8 -1017 -9 -1400 -20
-143 -3 -318 -8 -390 -10 -118 -3 -413 -13 -590 -20 -38 -2 -126 -6 -195 -9
-69 -4 -168 -9 -220 -11 -99 -5 -196 -11 -340 -21 -47 -3 -114 -7 -150 -9
-120 -8 -215 -15 -275 -21 -33 -3 -78 -7 -100 -9 -166 -13 -293 -24 -335 -30
-31 -4 -142 -16 -190 -20 -40 -3 -133 -14 -170 -20 -14 -2 -47 -7 -75 -10 -82
-9 -186 -23 -225 -30 -14 -2 -45 -7 -70 -10 -25 -4 -58 -8 -75 -11 -16 -3 -41
-7 -55 -9 -14 -2 -40 -6 -57 -9 -18 -3 -48 -8 -65 -11 -18 -3 -59 -10 -90 -16
-32 -5 -70 -12 -85 -15 -16 -2 -39 -7 -53 -10 -14 -3 -36 -8 -50 -10 -14 -2
-36 -7 -50 -10 -14 -3 -36 -8 -50 -10 -102 -19 -439 -102 -580 -143 -783 -230
-1346 -539 -1794 -985 -377 -376 -659 -844 -881 -1461 -20 -55 -37 -107 -39
-115 -2 -8 -16 -51 -30 -95 -24 -76 -95 -323 -101 -355 -2 -8 -17 -74 -34
-146 -45 -190 -93 -432 -126 -634 -3 -19 -10 -60 -15 -90 -5 -30 -12 -75 -15
-100 -3 -25 -8 -56 -10 -70 -3 -22 -17 -123 -31 -225 -8 -63 -24 -192 -30
-250 -3 -33 -7 -71 -9 -85 -1 -14 -6 -61 -10 -105 -4 -44 -9 -88 -11 -97 -1
-9 -5 -57 -9 -105 -3 -48 -8 -104 -10 -123 -3 -19 -7 -64 -10 -100 -2 -36 -7
-94 -10 -130 -2 -36 -7 -105 -10 -155 -3 -49 -7 -112 -10 -140 -2 -27 -6 -99
-10 -160 -3 -60 -8 -139 -10 -175 -4 -60 -8 -141 -20 -415 -3 -55 -7 -176 -10
-270 -3 -93 -8 -224 -10 -290 -5 -131 -15 -541 -20 -840 -25 -1305 -25 -6307
0 -7520 12 -591 17 -795 31 -1145 14 -390 22 -552 39 -835 15 -246 23 -358 30
-445 2 -25 7 -81 10 -125 3 -44 7 -100 10 -125 2 -25 7 -76 10 -115 3 -38 8
-89 11 -112 8 -85 13 -129 19 -193 3 -36 8 -76 10 -90 3 -14 7 -56 11 -95 3
-38 8 -78 10 -89 2 -11 6 -40 9 -65 11 -94 40 -303 51 -361 2 -14 7 -43 10
-65 10 -71 64 -368 75 -416 11 -49 11 -50 23 -114 5 -22 19 -87 33 -145 14
-58 26 -112 28 -120 37 -172 164 -575 252 -795 270 -680 651 -1197 1158 -1573
61 -45 115 -87 122 -92 7 -6 15 -10 18 -10 4 0 25 -13 48 -29 155 -108 492
-280 732 -374 117 -46 350 -128 405 -143 8 -2 53 -15 100 -29 186 -56 464
-124 700 -170 14 -3 41 -8 60 -11 19 -3 41 -7 48 -9 7 -3 41 -9 75 -15 34 -5
73 -12 87 -14 101 -18 226 -38 257 -41 21 -3 49 -7 63 -10 14 -3 43 -7 65 -10
22 -2 110 -13 195 -24 165 -21 207 -26 310 -36 36 -3 81 -8 100 -10 32 -4 73
-8 185 -19 53 -6 221 -19 370 -30 44 -4 107 -8 140 -11 76 -6 184 -13 305 -20
52 -3 131 -7 175 -10 44 -2 143 -7 220 -10 77 -4 172 -8 210 -10 63 -3 231 -9
555 -20 884 -29 1990 -38 4570 -38 3283 0 4477 16 5590 78 52 3 136 7 185 10
50 3 119 7 155 10 36 2 103 7 150 10 144 10 317 24 395 31 66 7 80 8 210 18
50 4 97 9 105 11 8 2 49 7 90 10 41 3 86 8 100 10 14 3 46 7 71 10 78 7 198
22 239 30 14 2 48 7 75 10 28 3 77 10 110 15 33 5 78 12 100 15 22 3 65 10 95
15 30 5 73 12 95 16 22 3 58 9 80 14 22 5 56 11 75 15 19 3 69 12 110 20 41 9
84 17 95 19 70 14 274 62 387 92 73 19 142 37 153 39 11 3 65 19 120 36 418
129 764 277 1070 459 109 65 307 199 325 219 3 4 23 19 45 36 22 16 42 31 45
34 3 4 37 33 75 66 463 397 818 959 1061 1680 60 178 102 316 123 402 5 21 21
83 34 138 30 117 84 358 92 406 3 19 12 68 20 109 8 41 17 91 20 110 3 19 10
60 15 90 5 30 11 69 14 85 4 29 19 115 21 125 1 5 14 103 21 159 2 19 6 46 9
60 2 14 6 49 10 76 3 28 7 66 10 85 2 19 7 64 11 100 3 36 7 67 9 70 2 3 6 43
10 90 3 47 8 96 10 110 4 24 11 100 20 200 22 253 22 259 30 370 3 52 8 113
10 135 5 48 17 249 30 500 3 55 8 147 11 205 3 58 7 150 9 205 2 55 6 172 9
260 39 1032 48 1981 48 4860 0 2058 -4 2972 -17 3720 -13 750 -39 1484 -70
2005 -3 47 -7 126 -10 175 -3 50 -7 115 -10 145 -3 30 -7 91 -10 135 -15 212
-36 447 -50 565 -2 19 -7 67 -10 105 -6 62 -38 341 -50 420 -2 17 -7 53 -10
80 -4 28 -8 57 -10 65 -2 8 -7 38 -10 65 -8 67 -72 442 -91 535 -9 41 -18 86
-21 100 -2 14 -10 53 -18 86 -8 34 -16 73 -19 85 -48 256 -235 840 -347 1086
-98 215 -145 306 -244 475 -196 336 -500 678 -815 920 -117 89 -330 231 -405
270 -16 8 -77 40 -135 71 -59 31 -153 77 -210 102 -58 25 -114 50 -125 55 -21
9 -85 35 -165 65 -196 75 -589 194 -760 230 -8 2 -42 10 -75 18 -61 16 -214
48 -340 72 -16 3 -41 8 -55 10 -14 3 -36 7 -50 10 -64 11 -87 15 -110 19 -14
3 -42 8 -62 11 -21 3 -55 7 -75 10 -21 3 -60 10 -88 15 -27 5 -72 12 -100 15
-27 3 -81 10 -120 16 -38 5 -88 12 -110 15 -22 3 -54 7 -72 9 -17 3 -73 9
-125 15 -51 5 -113 12 -138 15 -25 3 -70 8 -100 10 -30 3 -77 7 -105 10 -27 3
-75 8 -105 10 -30 3 -82 7 -115 10 -33 3 -85 7 -115 10 -30 3 -89 7 -130 10
-41 3 -104 8 -140 10 -112 9 -321 21 -505 30 -60 3 -148 7 -195 10 -47 3 -146
7 -220 10 -74 3 -196 7 -270 10 -329 13 -593 20 -1140 30 -563 11 -1948 18
-3678 19 -1086 0 -1974 0 -1975 0z m-848 -5138 c46 -4 98 -8 115 -11 17 -2 60
-7 95 -10 36 -3 67 -7 70 -9 3 -2 35 -7 71 -10 36 -4 83 -11 105 -16 22 -5 56
-11 75 -14 46 -7 54 -9 200 -44 752 -182 1524 -594 2110 -1127 96 -88 284
-277 361 -365 40 -47 76 -87 79 -90 14 -14 126 -156 192 -245 41 -55 170 -242
286 -415 116 -173 215 -319 219 -325 5 -5 60 -84 123 -175 63 -90 129 -178
146 -195 26 -26 57 -39 185 -74 354 -99 752 -245 1077 -397 41 -19 75 -34 78
-34 21 0 722 -350 914 -457 30 -17 98 -54 150 -83 52 -29 115 -64 140 -78 45
-26 65 -37 226 -126 49 -27 100 -57 114 -66 14 -9 50 -31 80 -47 30 -17 100
-56 155 -88 55 -32 115 -66 134 -77 19 -11 111 -63 205 -117 94 -54 207 -117
251 -141 44 -24 104 -56 133 -72 74 -40 426 -216 547 -273 229 -108 526 -232
775 -325 47 -18 94 -36 105 -41 11 -4 40 -15 65 -23 25 -8 90 -31 145 -50 201
-69 698 -216 816 -240 13 -3 33 -7 44 -10 61 -15 254 -58 275 -62 204 -38 299
-54 366 -64 44 -6 89 -12 100 -14 10 -2 51 -7 89 -11 39 -4 102 -10 140 -15
39 -4 126 -8 193 -8 120 -1 152 -8 152 -35 0 -10 -94 -250 -132 -337 -11 -25
-24 -54 -29 -65 -18 -43 -129 -292 -146 -330 -74 -163 -305 -611 -342 -664
-10 -14 -32 -62 -49 -106 -89 -232 -201 -480 -363 -800 -107 -212 -185 -361
-235 -448 -19 -32 -34 -60 -34 -62 0 -2 -38 -70 -85 -150 -47 -81 -85 -149
-85 -151 0 -3 -8 -17 -19 -32 -10 -15 -71 -115 -136 -222 -273 -452 -630 -984
-924 -1375 -375 -500 -673 -836 -997 -1127 -48 -42 -208 -159 -243 -178 -13
-7 -68 -46 -122 -86 -194 -147 -590 -406 -819 -536 -25 -14 -63 -36 -85 -48
-131 -75 -478 -244 -635 -311 -41 -17 -88 -37 -105 -45 -156 -70 -622 -232
-855 -298 -120 -33 -393 -104 -435 -112 -11 -2 -31 -6 -45 -9 -14 -2 -56 -7
-95 -10 -38 -3 -79 -7 -90 -9 -11 -2 -45 -7 -76 -10 -31 -4 -65 -8 -75 -10
-11 -2 -48 -7 -84 -10 -36 -4 -78 -9 -95 -11 -16 -2 -68 -6 -115 -10 -47 -3
-95 -8 -108 -10 -141 -23 -1077 -23 -1407 0 -27 2 -102 7 -165 10 -63 4 -137
9 -165 11 -27 2 -84 6 -125 9 -41 3 -97 8 -125 11 -27 2 -79 7 -115 9 -36 3
-82 7 -102 10 -55 7 -150 18 -258 30 -25 3 -56 7 -70 10 -14 2 -43 7 -65 10
-154 22 -888 253 -1130 356 -11 5 -54 22 -95 38 -546 212 -1237 593 -1690 930
-41 31 -86 64 -100 73 -60 42 -95 68 -198 150 -116 91 -122 96 -241 198 -249
212 -561 520 -776 765 -38 44 -72 82 -76 85 -11 10 -216 260 -283 346 -154
195 -413 566 -570 816 -54 85 -225 378 -281 480 -63 116 -310 608 -345 687
-15 36 -51 118 -80 181 -28 63 -62 143 -75 178 -13 34 -31 77 -38 95 -8 17
-25 59 -37 92 -12 33 -28 74 -35 90 -38 87 -178 509 -234 707 -66 234 -142
548 -166 688 -19 110 -47 172 -102 221 -24 21 -281 156 -677 354 -398 200
-649 331 -667 349 -38 39 -38 81 -1 121 15 17 99 76 187 132 294 186 429 271
633 398 230 145 240 156 179 206 -20 17 -132 99 -249 184 -117 85 -217 158
-223 162 -5 5 -111 82 -235 171 -124 90 -232 168 -240 175 -8 7 -32 25 -52 40
-60 46 -74 130 -29 171 10 9 60 34 112 55 78 32 227 95 394 166 17 7 71 29
120 50 120 50 138 58 220 93 39 17 97 41 130 55 486 201 519 216 563 264 23
26 42 51 42 55 0 4 29 57 65 119 36 61 65 113 65 116 0 2 8 16 19 31 33 48
151 242 151 247 0 3 5 11 10 18 6 7 65 93 131 192 187 278 468 642 648 839
114 125 332 345 416 420 17 15 44 39 60 54 207 188 500 402 766 560 120 71
401 215 485 249 16 6 67 27 114 47 153 62 463 160 570 180 14 2 45 9 70 15 86
19 253 47 340 56 30 4 69 8 85 10 17 3 84 7 150 11 66 4 121 7 123 9 5 4 348
-4 431 -9z"/>
<path d="M10580 19312 c-313 -31 -579 -264 -651 -572 -26 -108 -20 -259 14
-365 46 -141 147 -281 272 -376 287 -218 679 -186 940 76 143 143 213 308 213
502 1 437 -364 778 -788 735z"/>
<path d="M15489 18716 c-2 -2 -30 -7 -62 -10 -58 -7 -194 -38 -232 -54 -269
-109 -461 -293 -590 -567 -62 -129 -149 -409 -169 -540 -4 -22 -11 -65 -16
-95 -27 -160 -34 -257 -34 -485 0 -180 6 -336 19 -435 3 -19 7 -55 10 -80 3
-25 11 -74 16 -110 6 -36 13 -78 16 -95 12 -80 80 -335 123 -465 117 -351 299
-697 533 -1010 520 -695 1272 -1241 2178 -1578 315 -118 737 -226 1034 -267
308 -42 507 -57 765 -58 164 -1 400 8 480 18 19 3 58 7 85 10 101 11 207 26
282 41 43 9 92 18 108 21 17 2 75 16 130 29 55 14 109 27 120 29 50 12 227 67
290 90 39 15 75 28 80 29 6 2 23 8 38 14 16 7 30 12 33 12 2 0 23 8 47 19 23
10 76 33 117 51 167 71 551 284 635 352 6 5 51 38 100 75 92 67 203 156 265
212 145 132 373 372 429 455 8 12 17 23 20 26 4 3 19 23 36 45 16 22 32 42 36
45 4 3 63 88 131 190 167 249 279 449 547 975 l30 60 -30 6 c-17 4 -67 10
-112 13 -45 4 -98 8 -117 11 -19 2 -66 6 -105 10 -38 3 -77 8 -85 10 -8 2 -35
6 -60 9 -25 3 -56 8 -70 11 -14 3 -41 8 -60 11 -55 10 -240 54 -295 71 -110
33 -362 116 -390 128 -16 7 -61 25 -100 40 -75 28 -214 86 -280 115 -233 103
-344 156 -615 292 -173 87 -335 169 -360 182 -25 14 -135 73 -245 132 -110 59
-214 115 -232 125 -18 10 -63 35 -100 56 -37 20 -86 47 -108 59 -22 13 -66 37
-99 54 -62 34 -90 49 -206 115 -41 23 -101 56 -132 73 -31 17 -133 73 -225
125 -92 52 -224 125 -293 163 -68 38 -133 74 -145 81 -11 7 -27 15 -35 19 -8
4 -53 29 -100 55 -47 26 -135 73 -195 104 -61 32 -114 61 -120 65 -20 15 -583
298 -725 364 -393 185 -934 398 -1120 441 -8 2 -27 8 -42 14 -16 6 -28 8 -28
6 0 -2 -11 0 -25 5 -34 13 -255 57 -330 66 -33 3 -69 9 -80 11 -24 6 -361 14
-366 9z"/>
</g>
</svg>
