<svg xmlns="http://www.w3.org/2000/svg" version="1.1" xmlns:xlink="http://www.w3.org/1999/xlink" xmlns:svgjs="http://svgjs.com/svgjs" width="700" height="700"><svg xmlns="http://www.w3.org/2000/svg" version="1.0" width="700.000000" height="700.000000" preserveAspectRatio="xMidYMid meet" style=""><rect id="SvgjsRect1004" width="100%" height="100%" x="0" y="0" fill="none" stroke="none"></rect>
<metadata>
Created by potrace 1.14, written by Peter Selinger 2001-2017
</metadata>

<g class="currentLayer" style=""><title>Layer 1</title><g transform="translate(0,700) scale(0.10000000149011612,-0.10000000149011612) " fill="#ffffff" stroke="none" id="SvgjsG1003" class="selected" fill-opacity="1">
<path d="M2338 6995 c-2 -1 -97 -6 -213 -9 -115 -4 -239 -9 -275 -11 -36 -2 -104 -7 -152 -10 -49 -3 -103 -7 -120 -10 -18 -2 -62 -7 -98 -10 -36 -3 -75 -7 -85 -9 -11 -2 -42 -7 -70 -10 -27 -4 -83 -14 -125 -22 -41 -8 -88 -18 -105 -20 -38 -7 -152 -39 -230 -66 -411 -141 -640 -421 -749 -918 -25 -114 -49 -269 -61 -385 -3 -33 -8 -74 -10 -90 -2 -17 -7 -76 -10 -131 -4 -56 -8 -119 -10 -140 -20 -214 -30 -2615 -12 -3039 11 -277 15 -363 22 -427 3 -32 8 -86 11 -120 3 -35 10 -99 16 -143 5 -44 11 -89 13 -100 4 -35 21 -133 30 -175 3 -14 7 -34 9 -45 15 -77 59 -227 83 -285 116 -274 249 -429 473 -552 131 -73 370 -149 555 -178 33 -5 71 -11 85 -14 33 -6 101 -14 170 -21 30 -4 69 -8 85 -10 17 -2 80 -6 140 -10 61 -4 126 -8 145 -10 285 -28 2968 -28 3305 0 22 2 83 6 135 9 52 4 113 9 135 11 22 2 60 6 85 9 400 40 711 132 912 269 60 40 169 141 216 200 52 64 143 226 158 282 2 6 16 48 33 95 29 84 75 277 85 355 3 22 7 49 10 60 5 31 15 104 21 165 3 30 8 75 10 100 3 25 7 83 11 130 3 47 7 110 9 140 28 407 28 2909 0 3295 -2 28 -6 93 -9 145 -3 52 -8 113 -11 135 -2 22 -9 84 -15 138 -12 107 -14 114 -36 237 -9 47 -18 96 -20 110 -3 14 -18 71 -35 127 -116 401 -320 631 -684 771 -68 26 -201 64 -270 78 -11 2 -54 11 -95 19 -41 8 -93 17 -115 20 -22 2 -56 7 -75 10 -19 2 -57 7 -85 10 -27 2 -75 7 -105 10 -95 10 -146 13 -277 20 -71 4 -162 9 -203 12 -81 5 -2596 13 -2602 8z m482 -1520 c278 -53 523 -177 723 -364 94 -89 171 -187 297 -376 51 -77 94 -141 95 -143 1 -1 35 -12 76 -23 204 -56 475 -186 864 -414 312 -182 549 -289 805 -359 149 -42 162 -45 220 -56 155 -28 207 -32 231 -20 11 7 23 10 25 8 4 -4 -21 -70 -61 -163 -9 -22 -46 -98 -82 -169 -36 -71 -74 -152 -85 -180 -28 -72 -120 -254 -186 -366 -107 -183 -342 -537 -372 -560 -3 -3 -13 -15 -22 -28 -21 -31 -123 -147 -178 -203 -96 -97 -341 -261 -511 -342 -104 -50 -247 -108 -266 -109 -4 0 -24 -6 -43 -14 -170 -64 -343 -88 -645 -88 -151 0 -376 10 -420 19 -11 2 -44 7 -74 10 -91 9 -282 69 -451 140 -265 111 -564 316 -755 516 -193 203 -349 431 -489 714 -113 229 -178 407 -217 599 -14 72 -26 107 -42 123 -12 11 -105 63 -206 115 -101 51 -186 99 -189 107 -7 19 15 35 174 132 74 45 134 85 134 90 0 4 -28 28 -62 53 -35 25 -67 49 -73 54 -5 4 -47 34 -92 66 -46 32 -85 61 -87 64 -6 12 13 52 24 52 14 0 356 141 415 171 11 6 40 47 65 92 42 76 163 252 220 322 239 288 534 474 840 530 76 13 329 14 400 0z" id="SvgjsPath1002" fill="#ffffff" fill-opacity="1" stroke="none"></path>
<path d="M1965 4561 c-181 -82 -161 -337 30 -391 67 -19 126 -5 188 43 91 70 106 211 31 292 -64 71 -167 93 -249 56z" id="SvgjsPath1001" fill="#ffffff" fill-opacity="1" stroke="none"></path>
<path d="M3415 4403 c-178 -49 -269 -229 -268 -533 0 -268 85 -489 263 -684 294 -322 693 -489 1149 -480 147 3 253 21 383 64 236 79 445 238 579 441 81 122 173 300 160 309 -6 3 -35 8 -63 9 -155 7 -303 58 -613 211 -228 113 -267 134 -575 305 -359 199 -537 281 -745 341 -52 15 -236 27 -270 17z" id="SvgjsPath1000" fill="#ffffff" fill-opacity="1" stroke="none"></path>
</g></g></svg><style>@media (prefers-color-scheme: light) { :root { filter: brightness(0.1); } }
@media (prefers-color-scheme: dark) { :root { filter: brightness(1); } }
</style></svg>